<svg xmlns="http://www.w3.org/2000/svg" viewBox="0 0 808.8 154.5"><title>Asset 1Creative Construction Logo New</title><g id="Layer_2" data-name="Layer 2"><g id="Layer_1-2" data-name="Layer 1"><polygon points="69.8 95.3 104.7 115 139.5 95.3 174.4 75.6 209.3 95.3 174.4 115 139.5 134.8 174.4 154.5 279 95.3 174.4 36.1 69.8 95.3" fill="#80c6e1"/><polygon points="209.3 95.3 174.4 75.6 139.5 95.3 104.6 115 69.8 95.3 104.6 75.6 139.5 55.9 104.6 36.1 0 95.3 104.6 154.5 209.3 95.3" fill="#6696be"/><polygon points="209.3 59.2 174.4 39.4 139.5 59.2 104.6 78.9 69.8 59.2 104.6 39.4 139.5 19.7 104.6 0 0 59.2 104.6 118.3 209.3 59.2" fill="#4c85b5"/><polygon points="0 95.3 0 59.2 104.6 118.3 104.6 154.5 0 95.3" fill="#025395"/><polygon points="69.8 59.2 104.7 78.9 139.5 59.2 174.4 39.4 209.3 59.2 174.4 78.9 139.5 98.6 174.4 118.3 279 59.2 174.4 0 69.8 59.2" fill="#80c6e1"/><polygon points="279 59.2 279 95.3 174.4 154.5 174.4 118.3 279 59.2" fill="#98d1e7"/><polygon points="139.5 98.6 139.5 134.8 174.4 154.5 174.4 118.3 139.5 98.6" fill="#008ec5"/><polygon points="140 98.3 140 134.8 104.6 154.5 104.6 118.3 140 98.3" fill="#6696be"/><path d="M387,62.9a15.9,15.9,0,0,1-13.1,6.3,16.1,16.1,0,0,1-6.3-1.2,12.3,12.3,0,0,1-4.8-3.2,13.5,13.5,0,0,1-3.2-4.8,18.1,18.1,0,0,1-1.1-6.3,15.9,15.9,0,0,1,1.1-6.2,14,14,0,0,1,8-8.3,16.1,16.1,0,0,1,6.3-1.2,20.8,20.8,0,0,1,7.1,1.3,13.4,13.4,0,0,1,5.6,4.5L381.4,49a12.7,12.7,0,0,0-3-2.7,8.9,8.9,0,0,0-7.3-.4,5.5,5.5,0,0,0-2.4,1.8,7.6,7.6,0,0,0-1.6,2.6,10.7,10.7,0,0,0-.5,3.2,8.8,8.8,0,0,0,.6,3.3,6.8,6.8,0,0,0,1.5,2.6,7.4,7.4,0,0,0,2.5,1.7,7.9,7.9,0,0,0,3.2.6,8.7,8.7,0,0,0,4.2-.9,11.5,11.5,0,0,0,3.2-2.8Z" fill="#025395"/><path d="M400,38.8h12.3a14.3,14.3,0,0,1,4.3.7,8.8,8.8,0,0,1,3.3,1.8,8.1,8.1,0,0,1,2.1,3,11.8,11.8,0,0,1,.8,4.3,9.1,9.1,0,0,1-1.3,5,10.4,10.4,0,0,1-3.4,3.5l6.3,11.3H416l-5-10h-3.3v10H400Zm11.5,13.4a3.4,3.4,0,0,0,3.5-3.5,4,4,0,0,0-.9-2.7,3.6,3.6,0,0,0-2.6-.9h-3.8v7.1Z" fill="#025395"/><path d="M438,38.8h21.3v6.8H445.8v4.6h11.1v6.4H445.8v5h14.4v6.8H438Z" fill="#025395"/><path d="M483.3,38.8h9l10.4,29.6h-8.4l-2-6.1h-9.8l-2,6.1h-8.1Zm7.5,17.8-3.3-10.9-3.4,10.9Z" fill="#025395"/><path d="M520.2,45.7h-9.1V38.8h26v6.9h-9V68.4h-7.9Z" fill="#025395"/><path d="M550.3,38.8h7.9V68.4h-7.9Z" fill="#025395"/><path d="M571,38.8h8.6l6.7,20.6,6.2-20.6h8.4L590.1,68.4h-8.3Z" fill="#025395"/><path d="M613.7,38.8H635v6.8H621.6v4.6h11v6.4h-11v5h14.3v6.8H613.7Z" fill="#025395"/><path d="M387,110.2a15.8,15.8,0,0,1-13.1,6.2,16.1,16.1,0,0,1-6.3-1.1,13.5,13.5,0,0,1-4.8-3.2,14.9,14.9,0,0,1-3.2-4.9,18,18,0,0,1-1.1-6.2,16.1,16.1,0,0,1,1.1-6.3,14.6,14.6,0,0,1,3.1-4.9,15.1,15.1,0,0,1,4.9-3.3,16.1,16.1,0,0,1,6.3-1.2,18.7,18.7,0,0,1,7.1,1.3,12,12,0,0,1,5.6,4.5l-5.2,5.2a12.7,12.7,0,0,0-3-2.7,7.7,7.7,0,0,0-4-1,8.8,8.8,0,0,0-3.3.6,6.1,6.1,0,0,0-2.4,1.7,8.7,8.7,0,0,0-1.6,2.6,11.3,11.3,0,0,0-.5,3.2,8.8,8.8,0,0,0,.6,3.3,6.1,6.1,0,0,0,1.5,2.6,6.4,6.4,0,0,0,2.5,1.8,7.9,7.9,0,0,0,3.2.6,8.7,8.7,0,0,0,4.2-.9,12,12,0,0,0,3.2-2.9Z" fill="#025395"/><path d="M413.6,116.4a15.4,15.4,0,0,1-6.1-1.2,14.2,14.2,0,0,1-8.1-8.1,16.9,16.9,0,0,1,0-12.5,13.9,13.9,0,0,1,3.2-4.9,13.4,13.4,0,0,1,4.9-3.2,15.4,15.4,0,0,1,6.1-1.2,15.9,15.9,0,0,1,6.2,1.2,13.4,13.4,0,0,1,4.9,3.2,15.4,15.4,0,0,1,3.2,4.9,18.3,18.3,0,0,1,0,12.5,16.6,16.6,0,0,1-3.2,4.9,14.9,14.9,0,0,1-4.9,3.2A15.9,15.9,0,0,1,413.6,116.4Zm0-7.4a7.5,7.5,0,0,0,3.1-.6,5.8,5.8,0,0,0,2.3-1.8,7.2,7.2,0,0,0,1.4-2.6,10.7,10.7,0,0,0,.5-3.2,11.9,11.9,0,0,0-.5-3.2A8.2,8.2,0,0,0,419,95a6.6,6.6,0,0,0-2.3-1.7,6.2,6.2,0,0,0-3.1-.7,6.4,6.4,0,0,0-3.1.7,6.2,6.2,0,0,0-2.2,1.7,8.4,8.4,0,0,0-1.5,2.6,11.7,11.7,0,0,0-.4,3.2,10.8,10.8,0,0,0,.4,3.2,7.4,7.4,0,0,0,1.5,2.6,5.5,5.5,0,0,0,2.2,1.8A7.8,7.8,0,0,0,413.6,109Z" fill="#025395"/><path d="M443.3,86.1h7.2l11.3,16.5V86.1h7.8v29.6h-6.7l-11.8-17v17h-7.8Z" fill="#025395"/><path d="M487.4,106.3a11.4,11.4,0,0,0,3.2,2.3,9.2,9.2,0,0,0,4.4,1h1.2l1.1-.4a1.8,1.8,0,0,0,.8-.7,2,2,0,0,0,.3-1.1,2.2,2.2,0,0,0-1.2-1.9,18.4,18.4,0,0,0-3.4-1.6l-1.6-.5-2.8-1.1a15.6,15.6,0,0,1-2.5-1.7,6.9,6.9,0,0,1-1.8-2.4,6.6,6.6,0,0,1-.7-3.2,10,10,0,0,1,.8-3.8,8.9,8.9,0,0,1,2.2-3,9.3,9.3,0,0,1,3.5-2.1,14.9,14.9,0,0,1,4.9-.7,16.4,16.4,0,0,1,4,.4,18.9,18.9,0,0,1,3.1,1l2.3,1.2,1.4,1.2-4,5.1a15,15,0,0,0-3.2-1.9,8.7,8.7,0,0,0-3.5-.7h-1.2l-1,.4a2.7,2.7,0,0,0-.8.7,1.6,1.6,0,0,0-.2,1,2.1,2.1,0,0,0,1.2,2,9.1,9.1,0,0,0,1.4.7l1.7.6,1.5.4,3,1.1a9,9,0,0,1,2.8,1.8,8.2,8.2,0,0,1,2.1,2.7,9.3,9.3,0,0,1,.8,3.9,8,8,0,0,1-1,3.8,8.3,8.3,0,0,1-2.6,3,13.5,13.5,0,0,1-3.8,1.9,14.1,14.1,0,0,1-4.7.7,20.1,20.1,0,0,1-7.4-1.2,16.2,16.2,0,0,1-5.1-3.1Z" fill="#025395"/><path d="M528.5,93h-9.1V86.1h26.1V93h-9v22.7h-8Z" fill="#025395"/><path d="M558.7,86.1H571a14.4,14.4,0,0,1,4.3.6,8.9,8.9,0,0,1,3.3,1.9,8.1,8.1,0,0,1,2.1,3,10.8,10.8,0,0,1,.8,4.2,9.5,9.5,0,0,1-4.7,8.5l6.3,11.4h-8.4l-5-10.1h-3.3v10.1h-7.7Zm11.5,13.4a3.6,3.6,0,0,0,2.5-1,3.2,3.2,0,0,0,1-2.5,3.7,3.7,0,0,0-.9-2.7,3.3,3.3,0,0,0-2.6-1h-3.8v7.2Z" fill="#025395"/><path d="M596.1,86.1h7.8v17.4a6.1,6.1,0,0,0,1.2,3.9,4.1,4.1,0,0,0,3.7,1.6c1.8,0,3-.5,3.7-1.6a6.2,6.2,0,0,0,1.2-3.9V86.1h7.9v18.1a13.6,13.6,0,0,1-.9,5.1,11.9,11.9,0,0,1-2.7,3.9,13.3,13.3,0,0,1-4,2.4,14.4,14.4,0,0,1-5.1.8,14.6,14.6,0,0,1-5.2-.8,13.3,13.3,0,0,1-4-2.4,9.8,9.8,0,0,1-2.7-3.9,13.6,13.6,0,0,1-.9-5.1Z" fill="#025395"/><path d="M664.2,110.2a17.4,17.4,0,0,1-19.4,5.1,14.9,14.9,0,0,1-4.9-3.2,14.6,14.6,0,0,1-3.1-4.9,15.9,15.9,0,0,1-1.1-6.2,16.1,16.1,0,0,1,1.1-6.3,13.2,13.2,0,0,1,3.1-4.9,15.1,15.1,0,0,1,4.9-3.3,15.9,15.9,0,0,1,6.2-1.2,18.8,18.8,0,0,1,7.2,1.3,11.3,11.3,0,0,1,5.5,4.5l-5.2,5.2a10.6,10.6,0,0,0-2.9-2.7,7.7,7.7,0,0,0-4-1,8.8,8.8,0,0,0-3.3.6,7.4,7.4,0,0,0-2.5,1.7,11,11,0,0,0-1.5,2.6,8.6,8.6,0,0,0-.5,3.2,11.4,11.4,0,0,0,.5,3.3,7.6,7.6,0,0,0,1.6,2.6,6.4,6.4,0,0,0,2.5,1.8,7.9,7.9,0,0,0,3.2.6,8.7,8.7,0,0,0,4.2-.9,10.4,10.4,0,0,0,3.1-2.9Z" fill="#025395"/><path d="M685,93h-9.1V86.1h26V93h-9v22.7H685Z" fill="#025395"/><path d="M715.2,86.1H723v29.6h-7.8Z" fill="#025395"/><path d="M752.8,116.4a15.1,15.1,0,0,1-6.1-1.2,14.9,14.9,0,0,1-4.9-3.2,13.4,13.4,0,0,1-3.2-4.9,16.9,16.9,0,0,1,0-12.5,12.7,12.7,0,0,1,3.2-4.9,13.4,13.4,0,0,1,4.9-3.2,15.1,15.1,0,0,1,6.1-1.2,15.9,15.9,0,0,1,6.2,1.2,12.3,12.3,0,0,1,4.8,3.2,12.7,12.7,0,0,1,3.2,4.9,16.9,16.9,0,0,1,0,12.5,14.5,14.5,0,0,1-8,8.1A15.9,15.9,0,0,1,752.8,116.4Zm0-7.4a7.5,7.5,0,0,0,3.1-.6,6.6,6.6,0,0,0,2.3-1.8,7.2,7.2,0,0,0,1.4-2.6,10.7,10.7,0,0,0,.5-3.2,11.9,11.9,0,0,0-.5-3.2,8.2,8.2,0,0,0-1.4-2.6,7.6,7.6,0,0,0-2.3-1.7,7.2,7.2,0,0,0-6.2,0,7.6,7.6,0,0,0-2.3,1.7,8.2,8.2,0,0,0-1.4,2.6,11.9,11.9,0,0,0-.5,3.2,10.7,10.7,0,0,0,.5,3.2,7.2,7.2,0,0,0,1.4,2.6,6.6,6.6,0,0,0,2.3,1.8A7.5,7.5,0,0,0,752.8,109Z" fill="#025395"/><path d="M782.6,86.1h7.1l11.4,16.5V86.1h7.7v29.6h-6.7l-11.8-17v17h-7.7Z" fill="#025395"/></g></g></svg>